<svg width="40" height="41" viewBox="0 0 40 41" fill="none" xmlns="http://www.w3.org/2000/svg">
<path d="M12.6875 19.4758H12.4062C11.9141 19.4758 11.5625 19.1243 11.5625 18.6321V14.1321C11.5625 13.8157 11.7383 13.4993 12.0547 13.3586C12.3711 13.2532 12.7578 13.3235 13.0039 13.5344L14.4453 15.011C17.5391 11.9875 22.4961 11.9875 25.5547 15.0461C28.6133 18.1399 28.6133 23.0969 25.5547 26.1907C22.4609 29.2493 17.5039 29.2493 14.4102 26.1907C13.9883 25.7336 13.9883 25.0305 14.4102 24.6086C14.8672 24.1516 15.5703 24.1516 15.9922 24.6086C18.207 26.7883 21.7578 26.7883 23.9727 24.6086C26.1523 22.3938 26.1523 18.843 23.9727 16.6282C21.793 14.4485 18.2422 14.4485 16.0273 16.593L17.5039 18.0344C17.7148 18.2805 17.7852 18.6672 17.6797 18.9836C17.5391 19.3 17.2227 19.4758 16.9062 19.4758H12.6875Z" fill="black"/>
</svg>
