<svg
      width="66"
      height="45"
      viewBox="0 0 66 45"
      fill="none"
      xmlns="http://www.w3.org/2000/svg"
    >
      <g clip-path="url(#clip0_1_20)">
        <path
          d="M56.7537 3.26847L60.9819 10.592C61.2007 10.9709 61.6959 11.0946 62.088 10.8682L63.1529 10.2534C63.545 10.0271 63.6855 9.53637 63.4667 9.15744L59.2384 1.83389C59.0197 1.45496 58.5245 1.33128 58.1324 1.55765L57.0675 2.17247C56.6754 2.39884 56.5349 2.88953 56.7537 3.26847Z"
          fill="black"
        />
        <path
          d="M6.14942 36.3331L7.08807 37.9588C7.17849 38.1155 7.14796 38.3121 7.01678 38.3878L4.40855 39.8937C4.31595 39.9471 4.19232 39.929 4.09776 39.8543L2.50319 38.6072C2.31408 38.4579 2.30065 38.1673 2.47814 38.0649L5.74228 36.1803C5.87346 36.1046 6.05469 36.169 6.14942 36.3331Z"
          fill="black"
        />
        <path
          d="M10.1806 29.5765L7.91423 30.885L6.50807 34.6712L4.72498 35.7007L6.94451 39.545L8.63317 38.57L12.6581 39.1016L14.9245 37.7931L15.401 38.6185L61.7225 11.8748L56.0299 2.01484L9.70835 28.7586L10.1806 29.5765Z"
          fill="#F7EDE7"
        />
        <path
          d="M10.2623 30.2694L14.3485 37.3468C14.3786 37.399 14.3539 37.463 14.3076 37.4898C14.2613 37.5165 14.1891 37.4985 14.1633 37.4537L10.0771 30.3763C10.047 30.3241 10.0718 30.2601 10.1181 30.2333C10.1644 30.2066 10.2365 30.2246 10.2623 30.2694Z"
          fill="black"
        />
        <path
          d="M7.50193 34.3987L9.39215 37.6727C9.42229 37.7249 9.39752 37.7889 9.35122 37.8156C9.30492 37.8424 9.23279 37.8244 9.20695 37.7796L7.31673 34.5056C7.28659 34.4534 7.31136 34.3894 7.35766 34.3627C7.40396 34.336 7.47609 34.354 7.50193 34.3987Z"
          fill="black"
        />
        <path
          d="M21.1445 22.1559L26.8372 32.0158L58.7745 13.5768L53.0818 3.7169L21.1445 22.1559Z"
          fill="black"
        />
        <path
          d="M13.4493 28.4294L17.5355 35.5068C17.5656 35.559 17.5409 35.623 17.4946 35.6498C17.4483 35.6765 17.3761 35.6585 17.3503 35.6137L13.2641 28.5363C13.234 28.4841 13.2588 28.4201 13.3051 28.3933C13.3514 28.3666 13.4235 28.3846 13.4493 28.4294Z"
          fill="black"
        />
      </g>
      <defs>
        <clipPath id="clip0_1_20">
          <rect
            width="11.4189"
            height="68.6499"
            fill="white"
            transform="translate(5.70943 44.214) rotate(-120)"
          />
        </clipPath>
      </defs>
    </svg>