<svg width="40" height="40" viewBox="0 0 40 40" fill="none" xmlns="http://www.w3.org/2000/svg">
<path d="M20.0703 13.2535C20.9492 12.3746 22.3906 12.3746 23.2695 13.2535L28.0859 18.0699C28.9648 18.9489 28.9648 20.3903 28.0859 21.2692L23.4805 25.8395H27.875C28.4727 25.8395 29 26.3668 29 26.9645C29 27.5973 28.4727 28.0895 27.875 28.0895H20.3164H20H16.2734C15.6758 28.0895 15.1133 27.8785 14.6914 27.4567L11.8789 24.6442C11 23.7653 11 22.3239 11.8789 21.4449L20.0703 13.2535ZM20.3164 25.8395L22.6719 23.484L17.8555 18.6676L13.4609 23.027L16.2734 25.8395H20H20.3164Z" fill="black"/>
</svg>
